<svg width="27" height="27" viewBox="0 0 27 27" fill="none" xmlns="http://www.w3.org/2000/svg">
<path d="M13.5 2.53125C7.452 2.53125 2.53125 7.452 2.53125 13.5C2.53125 19.548 7.452 24.4688 13.5 24.4688C19.548 24.4688 24.4688 19.548 24.4688 13.5C24.4688 7.452 19.548 2.53125 13.5 2.53125ZM13.5 4.21875C18.6359 4.21875 22.7812 8.36409 22.7812 13.5C22.7812 18.6359 18.6359 22.7812 13.5 22.7812C8.36409 22.7812 4.21875 18.6359 4.21875 13.5C4.21875 8.36409 8.36409 4.21875 13.5 4.21875ZM13.5 7.48828L12.8925 8.09578L8.09494 12.8933L9.28125 14.1075L12.6562 10.7325V19.4062H14.3438V10.7325L17.7188 14.1075L18.9051 12.8925L14.1067 8.09494L13.4992 7.48744L13.5 7.48828Z" fill="white"/>
</svg>
