<svg width="32" height="33" viewBox="0 0 32 33" fill="none" xmlns="http://www.w3.org/2000/svg">
<rect y="0.5" width="32" height="32" rx="16" fill="#28262D"/>
<path d="M13.4247 23.7248C13.2663 23.7248 13.108 23.6664 12.983 23.5414C12.7413 23.2998 12.7413 22.8998 12.983 22.6581L18.4163 17.2248C18.8163 16.8248 18.8163 16.1748 18.4163 15.7748L12.983 10.3414C12.7413 10.0998 12.7413 9.69977 12.983 9.45811C13.2247 9.21644 13.6247 9.21644 13.8663 9.45811L19.2997 14.8914C19.7247 15.3164 19.9663 15.8914 19.9663 16.4998C19.9663 17.1081 19.733 17.6831 19.2997 18.1081L13.8663 23.5414C13.7413 23.6581 13.583 23.7248 13.4247 23.7248Z" fill="#F9F9F9"/>
</svg>
