<svg width="20" height="20" viewBox="0 0 20 20" fill="none" xmlns="http://www.w3.org/2000/svg">
<path d="M7.49947 13.4752L4.6078 10.5835C4.45199 10.4277 4.24066 10.3402 4.0203 10.3402C3.79995 10.3402 3.58862 10.4277 3.4328 10.5835C3.27699 10.7393 3.18945 10.9507 3.18945 11.171C3.18945 11.2801 3.21094 11.3882 3.2527 11.489C3.29445 11.5898 3.35565 11.6814 3.4328 11.7585L6.91614 15.2419C7.24114 15.5669 7.76614 15.5669 8.09114 15.2419L16.9078 6.42519C17.0636 6.26937 17.1512 6.05804 17.1512 5.83769C17.1512 5.61733 17.0636 5.406 16.9078 5.25019C16.752 5.09437 16.5407 5.00684 16.3203 5.00684C16.0999 5.00684 15.8886 5.09437 15.7328 5.25019L7.49947 13.4752Z" fill="white"/>
</svg>
