<svg width="25" height="25" viewBox="0 0 25 25" fill="none" xmlns="http://www.w3.org/2000/svg">
<path d="M12.3064 17.6641C13.4064 17.6641 14.3481 17.2724 15.1314 16.4891C15.9147 15.7057 16.3064 14.7641 16.3064 13.6641H8.3064C8.3064 14.7641 8.69806 15.7057 9.4814 16.4891C10.2647 17.2724 11.2064 17.6641 12.3064 17.6641ZM7.3064 9.66406H11.3064C11.3064 9.11406 11.1107 8.6434 10.7194 8.25206C10.3281 7.86073 9.85706 7.66473 9.3064 7.66406C8.75573 7.6634 8.28506 7.8594 7.8944 8.25206C7.50373 8.64473 7.30773 9.1154 7.3064 9.66406ZM13.3064 9.66406H17.3064C17.3064 9.11406 17.1107 8.6434 16.7194 8.25206C16.3281 7.86073 15.8571 7.66473 15.3064 7.66406C14.7557 7.6634 14.2851 7.8594 13.8944 8.25206C13.5037 8.64473 13.3077 9.1154 13.3064 9.66406ZM12.3064 22.6641C11.0564 22.6641 9.88573 22.4267 8.7944 21.9521C7.70306 21.4774 6.75306 20.8357 5.9444 20.0271C5.13573 19.2184 4.49406 18.2684 4.0194 17.1771C3.54473 16.0857 3.30706 14.9147 3.3064 13.6641V2.66406H21.3064V13.6641C21.3064 14.9141 21.0691 16.0851 20.5944 17.1771C20.1197 18.2691 19.4781 19.2191 18.6694 20.0271C17.8607 20.8351 16.9107 21.4767 15.8194 21.9521C14.7281 22.4274 13.5571 22.6647 12.3064 22.6641ZM12.3064 20.6641C14.2397 20.6641 15.8897 19.9807 17.2564 18.6141C18.6231 17.2474 19.3064 15.5974 19.3064 13.6641V4.66406H5.3064V13.6641C5.3064 15.5974 5.98973 17.2474 7.3564 18.6141C8.72306 19.9807 10.3731 20.6641 12.3064 20.6641Z" fill="#9CA4AB"/>
</svg>
