<svg width="25" height="25" viewBox="0 0 25 25" fill="none" xmlns="http://www.w3.org/2000/svg">
<g clip-path="url(#clip0_1217_654)">
<path d="M1.0564 11.1641H3.6739L8.12702 5.03194C8.26197 4.84666 8.43758 4.69477 8.64037 4.58794C8.84316 4.4811 9.06774 4.42216 9.29686 4.41565C9.52598 4.40913 9.75354 4.4552 9.96208 4.55034C10.1706 4.64547 10.3546 4.78713 10.4998 4.96444L11.7045 6.36131L11.7233 6.38287C11.7931 6.47056 11.8818 6.54138 11.9827 6.59006C12.0837 6.63873 12.1943 6.66401 12.3064 6.66401C12.4185 6.66401 12.5291 6.63873 12.6301 6.59006C12.731 6.54138 12.8197 6.47056 12.8895 6.38287L12.9083 6.36131L14.113 4.96444C14.2582 4.78713 14.4422 4.64547 14.6507 4.55034C14.8593 4.4552 15.0868 4.40913 15.3159 4.41565C15.5451 4.42216 15.7696 4.4811 15.9724 4.58794C16.1752 4.69477 16.3508 4.84666 16.4858 5.03194L20.9389 11.1641H23.5564C23.7553 11.1641 23.9461 11.2431 24.0867 11.3838C24.2274 11.5244 24.3064 11.7152 24.3064 11.9141C24.3064 12.113 24.2274 12.3038 24.0867 12.4445C23.9461 12.5851 23.7553 12.6641 23.5564 12.6641H1.0564C0.857485 12.6641 0.666718 12.5851 0.526066 12.4445C0.385414 12.3038 0.306396 12.113 0.306396 11.9141C0.306396 11.7152 0.385414 11.5244 0.526066 11.3838C0.666718 11.2431 0.857485 11.1641 1.0564 11.1641ZM15.2745 5.91412L15.2567 5.93569L14.052 7.33162C13.841 7.59105 13.5749 7.80019 13.2729 7.94384C12.971 8.08748 12.6408 8.16201 12.3064 8.16201C11.972 8.16201 11.6418 8.08748 11.3399 7.94384C11.0379 7.80019 10.7717 7.59105 10.5608 7.33162L9.35608 5.93569C9.35046 5.92819 9.34671 5.92162 9.34015 5.91412L5.52827 11.1641H19.0855L15.2745 5.91412ZM7.4314 14.1641C8.26146 14.1643 9.06234 14.4703 9.68098 15.0238C10.2996 15.5772 10.6926 16.3392 10.7848 17.1641H13.828C13.9204 16.34 14.3131 15.5787 14.931 15.0256C15.549 14.4725 16.3489 14.1662 17.1782 14.1653C18.0076 14.1644 18.8082 14.4689 19.4274 15.0207C20.0465 15.5724 20.4408 16.3328 20.5351 17.1568C20.6293 17.9808 20.4169 18.8106 19.9383 19.4879C19.4597 20.1652 18.7485 20.6426 17.9404 20.829C17.1323 21.0154 16.2838 20.8977 15.557 20.4984C14.8301 20.0991 14.2757 19.4461 13.9995 18.6641H10.6133C10.407 19.2475 10.0444 19.7629 9.56496 20.1541C9.08555 20.5453 8.50782 20.7971 7.89494 20.8821C7.28206 20.9671 6.6576 20.882 6.08982 20.6361C5.52205 20.3901 5.03281 19.9929 4.67558 19.4876C4.31836 18.9824 4.10689 18.3887 4.0643 17.7714C4.0217 17.1542 4.14963 16.5371 4.43408 15.9876C4.71853 15.4381 5.14857 14.9774 5.67718 14.6558C6.2058 14.3342 6.81265 14.1641 7.4314 14.1641ZM17.1814 19.4141C17.5522 19.4141 17.9147 19.3042 18.2231 19.0981C18.5314 18.8921 18.7718 18.5993 18.9137 18.2567C19.0556 17.914 19.0927 17.537 19.0204 17.1733C18.948 16.8096 18.7694 16.4755 18.5072 16.2133C18.245 15.9511 17.9109 15.7725 17.5472 15.7002C17.1835 15.6278 16.8065 15.6649 16.4639 15.8068C16.1213 15.9488 15.8284 16.1891 15.6224 16.4974C15.4164 16.8058 15.3064 17.1683 15.3064 17.5391C15.3064 17.7854 15.3549 18.0292 15.4491 18.2567C15.5434 18.4841 15.6815 18.6908 15.8556 18.8649C16.0297 19.0391 16.2364 19.1772 16.4639 19.2714C16.6914 19.3656 16.9352 19.4141 17.1814 19.4141ZM7.4314 19.4141C7.80224 19.4141 8.16475 19.3042 8.47309 19.0981C8.78143 18.8921 9.02176 18.5993 9.16367 18.2567C9.30558 17.914 9.34272 17.537 9.27037 17.1733C9.19802 16.8096 9.01945 16.4755 8.75722 16.2133C8.495 15.9511 8.16091 15.7725 7.79719 15.7002C7.43348 15.6278 7.05648 15.6649 6.71387 15.8068C6.37125 15.9488 6.07842 16.1891 5.87239 16.4974C5.66636 16.8058 5.5564 17.1683 5.5564 17.5391C5.5564 18.0364 5.75394 18.5133 6.10557 18.8649C6.4572 19.2166 6.93412 19.4141 7.4314 19.4141Z" fill="#9CA4AB"/>
</g>
<defs>
<clipPath id="clip0_1217_654">
<rect width="24" height="24" fill="white" transform="matrix(-1 0 0 1 24.3064 0.664062)"/>
</clipPath>
</defs>
</svg>
