<svg width="25" height="27" viewBox="0 0 25 27" fill="none" xmlns="http://www.w3.org/2000/svg">
<path d="M2.50008 26.4463C2.04256 26.4463 1.58755 26.3169 1.18504 26.0605C0.822963 25.8278 0.52414 25.5034 0.316791 25.1178C0.109442 24.7323 0.000412138 24.2983 0 23.857V3.14234C0 2.24384 0.450014 1.41007 1.18504 0.938813C1.54791 0.707744 1.96156 0.576053 2.3871 0.556123C2.81264 0.536193 3.23608 0.628678 3.61761 0.824883L23.6182 11.1822C24.0335 11.3976 24.3827 11.7285 24.6267 12.1378C24.8707 12.5471 25 13.0186 25 13.4997C25 13.9807 24.8707 14.4522 24.6267 14.8615C24.3827 15.2708 24.0335 15.6017 23.6182 15.8171L3.61761 26.1744C3.2676 26.3557 2.88009 26.4463 2.50008 26.4463Z" fill="#BF2929"/>
</svg>
