<svg width="25" height="25" viewBox="0 0 25 25" fill="none" xmlns="http://www.w3.org/2000/svg">
<path d="M10.3064 11.6641H10.3164M14.3064 6.66406H14.3164M18.3064 6.66406H18.3164M6.8064 13.7641H6.8164M22.3064 5.66406C22.3064 14.6641 18.3064 17.6641 16.3064 17.6641C14.3064 17.6641 10.3064 14.6641 10.3064 5.66406C10.3064 3.66406 12.3064 2.66406 16.3064 2.66406C22.3064 2.66406 22.3064 3.66406 22.3064 5.66406Z" stroke="#9CA4AB" stroke-width="2" stroke-linecap="round" stroke-linejoin="round"/>
<path d="M17.7063 10.5642C16.9063 11.3642 15.7063 11.3642 14.9063 10.5642M10.4063 7.76416C9.30635 7.86416 8.00635 8.36416 6.30635 9.26416C2.80635 11.2642 1.60635 13.1642 2.60635 14.8642C7.10635 22.6642 12.1063 23.2642 13.8063 22.2642C14.7063 21.7642 15.7063 20.1642 15.7063 17.5642" stroke="#9CA4AB" stroke-width="2" stroke-linecap="round" stroke-linejoin="round"/>
<path d="M9.40625 17.164C9.70625 16.064 10.8062 15.464 11.8062 15.764" stroke="#9CA4AB" stroke-width="2" stroke-linecap="round" stroke-linejoin="round"/>
</svg>
