<svg width="16" height="15" viewBox="0 0 16 15" fill="none" xmlns="http://www.w3.org/2000/svg">
<path d="M14.1176 0.924924L14.4863 1.29367C14.9945 1.80242 14.9176 2.7043 14.3132 3.30805L6.70883 10.9124L4.24508 11.8137C3.9357 11.9274 3.63445 11.7799 3.5732 11.4855C3.55257 11.3788 3.56232 11.2683 3.60133 11.1668L4.52008 8.6818L12.1032 1.09805C12.7076 0.494299 13.6095 0.416174 14.1176 0.924924ZM6.37695 1.68117C6.45903 1.68117 6.5403 1.69734 6.61613 1.72875C6.69196 1.76016 6.76086 1.8062 6.81889 1.86423C6.87693 1.92227 6.92297 1.99117 6.95438 2.067C6.98579 2.14283 7.00195 2.2241 7.00195 2.30617C7.00195 2.38825 6.98579 2.46952 6.95438 2.54535C6.92297 2.62118 6.87693 2.69008 6.81889 2.74812C6.76086 2.80615 6.69196 2.85219 6.61613 2.8836C6.5403 2.91501 6.45903 2.93117 6.37695 2.93117H3.87695C3.54543 2.93117 3.22749 3.06287 2.99307 3.29729C2.75865 3.53171 2.62695 3.84965 2.62695 4.18117V11.6812C2.62695 12.0127 2.75865 12.3306 2.99307 12.5651C3.22749 12.7995 3.54543 12.9312 3.87695 12.9312H11.377C11.7085 12.9312 12.0264 12.7995 12.2608 12.5651C12.4953 12.3306 12.627 12.0127 12.627 11.6812V9.18117C12.627 9.01541 12.6928 8.85644 12.81 8.73923C12.9272 8.62202 13.0862 8.55617 13.252 8.55617C13.4177 8.55617 13.5767 8.62202 13.6939 8.73923C13.8111 8.85644 13.877 9.01541 13.877 9.18117V11.6812C13.877 12.3442 13.6136 12.9801 13.1447 13.4489C12.6759 13.9178 12.04 14.1812 11.377 14.1812H3.87695C3.21391 14.1812 2.57803 13.9178 2.10919 13.4489C1.64035 12.9801 1.37695 12.3442 1.37695 11.6812V4.18117C1.37695 3.51813 1.64035 2.88225 2.10919 2.41341C2.57803 1.94457 3.21391 1.68117 3.87695 1.68117H6.37695Z" fill="#8D1E1E"/>
</svg>
