<svg width="58" height="56" viewBox="0 0 58 56" fill="none" xmlns="http://www.w3.org/2000/svg">
<path d="M17.5833 17.5833H40.9167M17.5833 29.25H35.0833M46.75 3C49.0706 3 51.2962 3.92187 52.9372 5.56282C54.5781 7.20376 55.5 9.42936 55.5 11.75V35.0833C55.5 37.404 54.5781 39.6296 52.9372 41.2705C51.2962 42.9115 49.0706 43.8333 46.75 43.8333H32.1667L17.5833 52.5833V43.8333H11.75C9.42936 43.8333 7.20376 42.9115 5.56282 41.2705C3.92187 39.6296 3 37.404 3 35.0833V11.75C3 9.42936 3.92187 7.20376 5.56282 5.56282C7.20376 3.92187 9.42936 3 11.75 3H46.75Z" stroke="#8D1E1E" stroke-width="5" stroke-linecap="round" stroke-linejoin="round"/>
</svg>
