<svg width="70" height="71" viewBox="0 0 70 71" fill="none" xmlns="http://www.w3.org/2000/svg">
<path d="M64.0884 58.0053C60.3395 51.4256 54.4855 46.2988 47.4689 43.4502C50.9582 40.8332 53.5357 37.1847 54.8362 33.0215C56.1366 28.8583 56.0943 24.3914 54.715 20.2536C53.3357 16.1158 50.6895 12.5169 47.1512 9.96657C43.6129 7.41628 39.3618 6.04395 35.0002 6.04395C30.6385 6.04395 26.3875 7.41628 22.8492 9.96657C19.3108 12.5169 16.6646 16.1158 15.2853 20.2536C13.9061 24.3914 13.8637 28.8583 15.1642 33.0215C16.4647 37.1847 19.0421 40.8332 22.5314 43.4502C15.5148 46.2988 9.66083 51.4256 5.91189 58.0053C5.67959 58.3788 5.52476 58.7952 5.45661 59.2298C5.38846 59.6643 5.40838 60.1081 5.51519 60.5349C5.62199 60.9616 5.8135 61.3624 6.07832 61.7136C6.34315 62.0649 6.67588 62.3592 7.05675 62.5793C7.43762 62.7993 7.85884 62.9406 8.29538 62.9946C8.73192 63.0486 9.17486 63.0142 9.59787 62.8937C10.0209 62.773 10.4153 62.5686 10.7578 62.2925C11.1002 62.0165 11.3836 61.6743 11.5912 61.2865C16.5459 52.7225 25.2959 47.6146 35.0002 47.6146C44.7045 47.6146 53.4545 52.7252 58.4092 61.2865C58.859 62.0098 59.5725 62.5299 60.3988 62.7367C61.2251 62.9435 62.0994 62.8209 62.837 62.3948C63.5745 61.9687 64.1175 61.2724 64.351 60.4533C64.5846 59.6341 64.4904 58.7563 64.0884 58.0053ZM20.7814 26.8334C20.7814 24.0212 21.6153 21.2721 23.1777 18.9339C24.7401 16.5956 26.9608 14.7732 29.5589 13.697C32.157 12.6208 35.0159 12.3392 37.7741 12.8879C40.5323 13.4365 43.0658 14.7907 45.0543 16.7792C47.0429 18.7678 48.3971 21.3013 48.9457 24.0595C49.4943 26.8176 49.2128 29.6765 48.1366 32.2747C47.0604 34.8728 45.2379 37.0935 42.8997 38.6559C40.5614 40.2182 37.8124 41.0521 35.0002 41.0521C31.2305 41.0478 27.6164 39.5484 24.9508 36.8828C22.2852 34.2172 20.7858 30.6031 20.7814 26.8334Z" fill="#8D1E1E"/>
</svg>
