<svg width="13" height="13" viewBox="0 0 13 13" fill="none" xmlns="http://www.w3.org/2000/svg">
<path d="M6.50029 1.0835C5.78897 1.0835 5.08461 1.2236 4.42742 1.49582C3.77024 1.76803 3.17312 2.16702 2.67013 2.67C1.65431 3.68582 1.08363 5.06357 1.08363 6.50016C1.07935 7.75087 1.51238 8.96373 2.30779 9.92891L1.22446 11.0122C1.1493 11.0884 1.09839 11.1851 1.07814 11.2902C1.0579 11.3953 1.06923 11.504 1.11071 11.6027C1.1557 11.7001 1.22863 11.782 1.32025 11.838C1.41187 11.8939 1.51804 11.9213 1.62529 11.9168H6.50029C7.93688 11.9168 9.31463 11.3461 10.3305 10.3303C11.3463 9.3145 11.917 7.93675 11.917 6.50016C11.917 5.06357 11.3463 3.68582 10.3305 2.67C9.31463 1.65418 7.93688 1.0835 6.50029 1.0835ZM6.50029 10.8335H2.93071L3.43446 10.3297C3.53535 10.2283 3.59197 10.091 3.59197 9.94787C3.59197 9.80477 3.53535 9.66748 3.43446 9.566C2.72519 8.85752 2.28351 7.92504 2.18467 6.92743C2.08582 5.92981 2.33593 4.92879 2.89238 4.0949C3.44882 3.26102 4.27718 2.64586 5.23632 2.35423C6.19547 2.06261 7.22605 2.11256 8.15249 2.49557C9.07894 2.87859 9.84392 3.57098 10.3171 4.45477C10.7903 5.33856 10.9424 6.35908 10.7476 7.34246C10.5527 8.32583 10.0229 9.21123 9.24846 9.84779C8.474 10.4844 7.50279 10.8327 6.50029 10.8335Z" fill="white"/>
</svg>
