<svg width="13" height="13" viewBox="0 0 13 13" fill="none" xmlns="http://www.w3.org/2000/svg">
<path d="M10.5627 6.80999L6.5002 10.8335L2.4377 6.80999C2.16974 6.54924 1.95868 6.23583 1.81779 5.8895C1.67691 5.54317 1.60926 5.17142 1.6191 4.79766C1.62895 4.4239 1.71608 4.05623 1.875 3.7178C2.03392 3.37936 2.26119 3.0775 2.54251 2.83122C2.82382 2.58494 3.15309 2.39957 3.50956 2.28679C3.86603 2.17401 4.242 2.13626 4.61378 2.17592C4.98556 2.21558 5.3451 2.33179 5.66976 2.51723C5.99442 2.70267 6.27717 2.95332 6.5002 3.25341C6.7242 2.9555 7.00728 2.70704 7.33172 2.52357C7.65616 2.3401 8.01497 2.22557 8.38571 2.18715C8.75645 2.14873 9.13112 2.18724 9.48629 2.30029C9.84146 2.41333 10.1695 2.59846 10.4498 2.8441C10.7301 3.08974 10.9567 3.3906 11.1154 3.72785C11.2741 4.06509 11.3615 4.43147 11.3721 4.80404C11.3827 5.17661 11.3163 5.54736 11.177 5.89308C11.0378 6.23881 10.8286 6.55206 10.5627 6.81324" stroke="white" stroke-linecap="round" stroke-linejoin="round"/>
</svg>
