<svg width="26" height="26" viewBox="0 0 26 26" fill="none" xmlns="http://www.w3.org/2000/svg">
<path d="M20.9669 5.03271C22.5072 6.57721 23.0866 8.71276 22.7053 10.7008C23.3037 10.8694 23.8705 11.1886 24.3425 11.6574C25.8217 13.1261 25.8217 15.5071 24.3425 16.9747L18.6038 22.6723L15.42 19.5117L12.2825 22.6565L3.34838 13.7097C1.13276 11.2276 1.21599 7.41584 3.59807 5.03271C5.98436 2.64747 9.80137 2.5674 12.2835 4.7925C14.7583 2.57056 18.5827 2.64431 20.9669 5.03271ZM14.3495 13.1535C13.7006 13.7972 13.7006 14.836 14.3495 15.4797L18.6038 19.7034L22.858 15.4797C23.507 14.836 23.507 13.7972 22.858 13.1535C22.2006 12.5003 21.1281 12.5003 20.4686 13.1556L18.6017 15.0035L17.1193 13.5328L16.7369 13.1535C16.0795 12.5003 15.007 12.5003 14.3495 13.1535ZM5.08884 6.52348C3.51905 8.09327 3.44003 10.606 4.88656 12.2664L12.2825 19.6739L13.925 18.0283L12.8651 16.9747C11.3859 15.5071 11.3859 13.1261 12.8651 11.6574C14.3443 10.1898 16.7422 10.1898 18.2213 11.6574L18.6038 12.0367L18.9862 11.6574C19.434 11.2139 19.966 10.9041 20.5297 10.7282C20.968 9.288 20.6119 7.66026 19.4751 6.52137C17.8947 4.93894 15.3452 4.87468 13.6911 6.36018L12.2846 7.62233L10.877 6.36123C9.21771 4.87362 6.67338 4.93894 5.08884 6.52348Z" fill="#9CA4AB"/>
</svg>
