<svg width="27" height="26" viewBox="0 0 27 26" fill="none" xmlns="http://www.w3.org/2000/svg">
<path d="M5.56112 1.48584L24.5896 20.5154C24.8866 20.8122 25.0534 21.2148 25.0535 21.6347C25.0536 22.0546 24.8869 22.4573 24.5901 22.7542C24.2933 23.0512 23.8907 23.2181 23.4708 23.2182C23.0509 23.2183 22.6482 23.0516 22.3513 22.7548L17.501 17.9035L13.7694 21.634L9.42148 17.2861V20.051C9.42148 20.3309 9.31029 20.5993 9.11238 20.7973C8.91447 20.9952 8.64605 21.1063 8.36616 21.1063C8.08627 21.1063 7.81785 20.9952 7.61994 20.7973C7.42202 20.5993 7.31084 20.3309 7.31084 20.051V15.8298C7.31054 15.5608 7.20755 15.3021 7.0229 15.1065C6.83825 14.9109 6.58588 14.7932 6.31737 14.7774C6.04885 14.7617 5.78445 14.849 5.57818 15.0217C5.37192 15.1943 5.23936 15.4392 5.20759 15.7063L5.2002 15.8298V16.8851C5.2002 17.165 5.08901 17.4334 4.8911 17.6313C4.69319 17.8292 4.42477 17.9404 4.14488 17.9404C3.86499 17.9404 3.59657 17.8292 3.39866 17.6313C3.20074 17.4334 3.08956 17.165 3.08956 16.8851V7.61303C3.04572 5.41046 3.86714 3.2785 5.37749 1.67474L5.56112 1.48584ZM5.81545 4.72567L5.76163 4.84176C5.44468 5.54192 5.25801 6.29399 5.21075 7.0611L5.2002 7.38719L5.19914 7.51383C5.21184 9.08003 5.80611 10.5856 6.86655 11.7383L7.05334 11.9335L13.7683 18.6485L16.7538 15.6641L5.81545 4.72567Z" fill="#9CA4AB"/>
</svg>
