<svg width="20" height="20" viewBox="0 0 20 20" fill="none" xmlns="http://www.w3.org/2000/svg">
<g clip-path="url(#clip0_1263_484)">
<path d="M10.0495 11.439C9.75035 11.4412 9.46062 11.5436 9.22646 11.7297C8.99231 11.9158 8.82723 12.175 8.75754 12.4659C8.68786 12.7568 8.71759 13.0626 8.84199 13.3346C8.96638 13.6067 9.17829 13.8292 9.4439 13.9667V15.5556H10.555V14.0167C10.8419 13.8992 11.079 13.6857 11.2261 13.4128C11.3731 13.1399 11.4208 12.8244 11.3612 12.5202C11.3015 12.216 11.1381 11.9419 10.8989 11.7447C10.6597 11.5475 10.3595 11.4395 10.0495 11.439Z" fill="white"/>
<path d="M14.4442 8.33326V5.95548C14.4681 4.75097 14.0139 3.58606 13.1809 2.71564C12.348 1.84522 11.2042 1.34018 9.99978 1.31104C8.79539 1.34018 7.65159 1.84522 6.81865 2.71564C5.98571 3.58606 5.53148 4.75097 5.55534 5.95548V8.33326H3.88867V17.7777C3.88867 18.0724 4.00573 18.355 4.21411 18.5634C4.42248 18.7718 4.7051 18.8888 4.99978 18.8888H14.9998C15.2945 18.8888 15.5771 18.7718 15.7855 18.5634C15.9938 18.355 16.1109 18.0724 16.1109 17.7777V8.33326H14.4442ZM6.66645 5.95548C6.6425 5.04561 6.97965 4.16325 7.60423 3.50119C8.22882 2.83913 9.09006 2.45119 9.99978 2.42215C10.9095 2.45119 11.7707 2.83913 12.3953 3.50119C13.0199 4.16325 13.3571 5.04561 13.3331 5.95548V8.33326H6.66645V5.95548ZM4.99978 17.7777V9.44437H14.9998V17.7777H4.99978Z" fill="white"/>
</g>
<defs>
<clipPath id="clip0_1263_484">
<rect width="20" height="20" fill="white"/>
</clipPath>
</defs>
</svg>
