<svg width="107" height="30" viewBox="0 0 107 30" fill="none" xmlns="http://www.w3.org/2000/svg">
<path d="M35 4.34619H39.9333C41.6483 4.34619 42.8993 4.74973 43.6862 5.55682C44.4731 6.34372 44.8666 7.56443 44.8666 9.21895V10.5204C44.8666 12.7197 44.1402 14.1119 42.6875 14.697V14.7576C43.4945 14.9997 44.0595 15.494 44.3823 16.2406C44.7253 16.9871 44.8969 17.9859 44.8969 19.2369V22.9595C44.8969 23.5649 44.917 24.0592 44.9574 24.4426C44.9977 24.8057 45.0986 25.1689 45.26 25.5321H41.8703C41.7492 25.1891 41.6685 24.8663 41.6282 24.5636C41.5878 24.261 41.5676 23.7162 41.5676 22.9293V19.0553C41.5676 18.0868 41.4062 17.4108 41.0834 17.0275C40.7807 16.6441 40.246 16.4524 39.4793 16.4524H38.3292V25.5321H35V4.34619ZM39.5398 13.4259C40.2057 13.4259 40.7 13.2544 41.0229 12.9114C41.3659 12.5683 41.5374 11.9933 41.5374 11.1862V9.55188C41.5374 8.78515 41.3961 8.23028 41.1137 7.88727C40.8514 7.54426 40.4276 7.37275 39.8425 7.37275H38.3292V13.4259H39.5398Z" fill="#8D1E1E"/>
<path d="M47.2067 4.34619H56.2864V7.37275H50.536V12.9719H55.1061V15.9985H50.536V22.5056H56.2864V25.5321H47.2067V4.34619Z" fill="#8D1E1E"/>
<path d="M60.8045 7.37275H57.324V4.34619H67.6143V7.37275H64.1337V25.5321H60.8045V7.37275Z" fill="#8D1E1E"/>
<path d="M69.2261 4.34619H78.0334V7.37275H72.5554V13.2745H76.8531V16.3011H72.5554V25.5321H69.2261V4.34619Z" fill="#8D1E1E"/>
<path d="M79.6299 4.34619H82.9592V22.5056H88.4372V25.5321H79.6299V4.34619Z" fill="#8D1E1E"/>
<path d="M90.0337 4.34619H93.363V25.5321H90.0337V4.34619Z" fill="#8D1E1E"/>
<path d="M98.7921 14.697L95.13 4.34619H98.6408L100.88 11.1862H100.941L103.241 4.34619H106.389L102.727 14.697L106.57 25.5321H103.06L100.638 18.1473H100.578L98.096 25.5321H94.9484L98.7921 14.697Z" fill="#8D1E1E"/>
<g clip-path="url(#clip0_1251_832)">
<path d="M26.2494 2.96045H25.1846V6.70326H28.9999V5.70639C28.9999 4.19295 27.7629 2.96045 26.2494 2.96045Z" fill="#8D1E1E"/>
<path d="M28.9999 7.64111H25.1846V11.9231H28.9999V7.64111Z" fill="#8D1E1E"/>
<path d="M28.9999 12.8569H25.1846V17.1435H28.9999V12.8569Z" fill="#8D1E1E"/>
<path d="M28.9999 18.0767H25.1846V22.3632H28.9999V18.0767Z" fill="#8D1E1E"/>
<path d="M25.1847 27.0395H26.2495C27.763 27.0395 29 25.8025 29 24.289V23.2967H25.1847V27.0395ZM0 24.289C0 25.8025 1.23703 27.0395 2.75047 27.0395H3.81531V23.2967H0V24.289ZM0 5.70639V6.70326H3.81531V2.96045H2.75047C1.23703 2.96045 0 4.19295 0 5.70639Z" fill="#8D1E1E"/>
<path d="M3.81531 7.64111H0V11.9231H3.81531V7.64111Z" fill="#8D1E1E"/>
<path d="M3.81531 18.0767H0V22.3632H3.81531V18.0767Z" fill="#8D1E1E"/>
<path d="M3.81531 12.8569H0V17.1435H3.81531V12.8569Z" fill="#8D1E1E"/>
<path d="M4.75342 27.0395H24.2469V2.96045H4.75342V27.0395ZM10.9204 9.69389C10.9204 9.52623 11.0111 9.37217 11.1561 9.28607C11.3011 9.19998 11.4778 9.19998 11.6228 9.28607L20.8122 14.5967C20.9572 14.6828 21.0478 14.8369 21.0478 15C21.0478 15.1676 20.9572 15.3217 20.8122 15.4078L11.6228 20.7094C11.5548 20.7501 11.4733 20.7728 11.3872 20.7728C11.3056 20.7728 11.2286 20.7501 11.1515 20.7094C11.0065 20.6233 10.9159 20.4692 10.9159 20.3061V9.69389H10.9204Z" fill="#8D1E1E"/>
</g>
<defs>
<clipPath id="clip0_1251_832">
<rect width="29" height="29" fill="white" transform="translate(0 0.5)"/>
</clipPath>
</defs>
</svg>
