<svg width="25" height="25" viewBox="0 0 25 25" fill="none" xmlns="http://www.w3.org/2000/svg">
<path d="M15.3064 21.6641L9.3064 19.5641L4.6564 21.3641C4.32306 21.4974 4.01473 21.4601 3.7314 21.2521C3.44806 21.0441 3.3064 20.7647 3.3064 20.4141V6.41406C3.3064 6.1974 3.36906 6.00573 3.4944 5.83906C3.61973 5.6724 3.7904 5.5474 4.0064 5.46406L9.3064 3.66406L15.3064 5.76406L19.9564 3.96406C20.2897 3.83073 20.5981 3.8684 20.8814 4.07706C21.1647 4.28573 21.3064 4.56473 21.3064 4.91406V18.9141C21.3064 19.1307 21.2441 19.3224 21.1194 19.4891C20.9947 19.6557 20.8237 19.7807 20.6064 19.8641L15.3064 21.6641ZM14.3064 19.2141V7.51406L10.3064 6.11406V17.8141L14.3064 19.2141ZM16.3064 19.2141L19.3064 18.2141V6.36406L16.3064 7.51406V19.2141ZM5.3064 18.9641L8.3064 17.8141V6.11406L5.3064 7.11406V18.9641Z" fill="#9CA4AB"/>
</svg>
