<svg width="24" height="24" viewBox="0 0 24 24" fill="none" xmlns="http://www.w3.org/2000/svg">
<path d="M9.5 15.5842V8.41616C9.50015 8.32648 9.52442 8.23848 9.57026 8.1614C9.61611 8.08432 9.68184 8.02099 9.76057 7.97804C9.83931 7.9351 9.92814 7.91412 10.0178 7.91731C10.1074 7.9205 10.1945 7.94773 10.27 7.99616L15.846 11.5792C15.9166 11.6244 15.9747 11.6867 16.0149 11.7602C16.0552 11.8338 16.0763 11.9163 16.0763 12.0002C16.0763 12.084 16.0552 12.1665 16.0149 12.2401C15.9747 12.3137 15.9166 12.3759 15.846 12.4212L10.27 16.0052C10.1945 16.0536 10.1074 16.0808 10.0178 16.084C9.92814 16.0872 9.83931 16.0662 9.76057 16.0233C9.68184 15.9803 9.61611 15.917 9.57026 15.8399C9.52442 15.7628 9.50015 15.6748 9.5 15.5852V15.5842Z" fill="white"/>
<path d="M1 12C1 5.925 5.925 1 12 1C18.075 1 23 5.925 23 12C23 18.075 18.075 23 12 23C5.925 23 1 18.075 1 12ZM12 2.5C9.48044 2.5 7.06408 3.50089 5.28249 5.28249C3.50089 7.06408 2.5 9.48044 2.5 12C2.5 14.5196 3.50089 16.9359 5.28249 18.7175C7.06408 20.4991 9.48044 21.5 12 21.5C14.5196 21.5 16.9359 20.4991 18.7175 18.7175C20.4991 16.9359 21.5 14.5196 21.5 12C21.5 9.48044 20.4991 7.06408 18.7175 5.28249C16.9359 3.50089 14.5196 2.5 12 2.5Z" fill="white"/>
</svg>
