<svg width="45" height="45" viewBox="0 0 45 45" fill="none" xmlns="http://www.w3.org/2000/svg">
<g clip-path="url(#clip0_1244_85)">
<path fill-rule="evenodd" clip-rule="evenodd" d="M5.05607 5.05607C5.13083 4.9815 5.21956 4.92239 5.31718 4.88213C5.4148 4.84187 5.5194 4.82124 5.625 4.82143H10.4464C11.0858 4.82143 11.699 4.56744 12.1511 4.11535C12.6032 3.66325 12.8571 3.05008 12.8571 2.41071C12.8571 1.77135 12.6032 1.15818 12.1511 0.706082C11.699 0.253985 11.0858 0 10.4464 0L5.625 0C4.13316 0 2.70242 0.592632 1.64752 1.64752C0.592632 2.70242 0 4.13316 0 5.625L0 10.4464C0 11.0858 0.253985 11.699 0.706082 12.1511C1.15818 12.6032 1.77135 12.8571 2.41071 12.8571C3.05008 12.8571 3.66325 12.6032 4.11535 12.1511C4.56744 11.699 4.82143 11.0858 4.82143 10.4464V5.625C4.82124 5.5194 4.84187 5.4148 4.88213 5.31718C4.92239 5.21956 4.9815 5.13083 5.05607 5.05607ZM45 34.5536C45 33.9142 44.746 33.301 44.2939 32.8489C43.8418 32.3968 43.2286 32.1429 42.5893 32.1429C41.9499 32.1429 41.3368 32.3968 40.8847 32.8489C40.4326 33.301 40.1786 33.9142 40.1786 34.5536V39.375C40.1786 39.5881 40.0939 39.7925 39.9432 39.9432C39.7925 40.0939 39.5881 40.1786 39.375 40.1786H34.5536C33.9142 40.1786 33.301 40.4326 32.8489 40.8847C32.3968 41.3368 32.1429 41.9499 32.1429 42.5893C32.1429 43.2286 32.3968 43.8418 32.8489 44.2939C33.301 44.746 33.9142 45 34.5536 45H39.375C40.8668 45 42.2976 44.4074 43.3525 43.3525C44.4074 42.2976 45 40.8668 45 39.375V34.5536ZM2.41071 32.1429C3.05008 32.1429 3.66325 32.3968 4.11535 32.8489C4.56744 33.301 4.82143 33.9142 4.82143 34.5536V39.375C4.82143 39.5881 4.90609 39.7925 5.05679 39.9432C5.20749 40.0939 5.41188 40.1786 5.625 40.1786H10.4464C11.0858 40.1786 11.699 40.4326 12.1511 40.8847C12.6032 41.3368 12.8571 41.9499 12.8571 42.5893C12.8571 43.2286 12.6032 43.8418 12.1511 44.2939C11.699 44.746 11.0858 45 10.4464 45H5.625C4.13316 45 2.70242 44.4074 1.64752 43.3525C0.592632 42.2976 0 40.8668 0 39.375L0 34.5536C0 33.9142 0.253985 33.301 0.706082 32.8489C1.15818 32.3968 1.77135 32.1429 2.41071 32.1429ZM34.5536 0C33.9142 0 33.301 0.253985 32.8489 0.706082C32.3968 1.15818 32.1429 1.77135 32.1429 2.41071C32.1429 3.05008 32.3968 3.66325 32.8489 4.11535C33.301 4.56744 33.9142 4.82143 34.5536 4.82143H39.375C39.5881 4.82143 39.7925 4.90609 39.9432 5.05679C40.0939 5.20749 40.1786 5.41188 40.1786 5.625V10.4464C40.1786 11.0858 40.4326 11.699 40.8847 12.1511C41.3368 12.6032 41.9499 12.8571 42.5893 12.8571C43.2286 12.8571 43.8418 12.6032 44.2939 12.1511C44.746 11.699 45 11.0858 45 10.4464V5.625C45 4.13316 44.4074 2.70242 43.3525 1.64752C42.2976 0.592632 40.8668 0 39.375 0H34.5536ZM22.5 24.9943C19.6002 24.9928 16.7694 25.8786 14.3878 27.5328C12.0062 29.187 10.1878 31.5304 9.17679 34.2482C8.81679 35.2093 9.585 36.1607 10.6104 36.1607H34.3832C35.4118 36.1607 36.1768 35.2093 35.82 34.2482C34.809 31.5304 32.9906 29.187 30.609 27.5328C28.2273 25.8786 25.3998 24.9928 22.5 24.9943ZM29.5971 14.3389C29.5971 16.2233 28.8486 18.0306 27.5161 19.363C26.1836 20.6955 24.3764 21.4441 22.492 21.4441C20.6076 21.4441 18.8003 20.6955 17.4678 19.363C16.1354 18.0306 15.3868 16.2233 15.3868 14.3389C15.3868 12.4545 16.1354 10.6473 17.4678 9.31481C18.8003 7.98233 20.6076 7.23375 22.492 7.23375C24.3764 7.23375 26.1836 7.98233 27.5161 9.31481C28.8486 10.6473 29.5971 12.4545 29.5971 14.3389Z" fill="#9CA4AB"/>
</g>
<defs>
<clipPath id="clip0_1244_85">
<rect width="45" height="45" fill="white"/>
</clipPath>
</defs>
</svg>
