<svg width="24" height="24" viewBox="0 0 24 24" fill="none" xmlns="http://www.w3.org/2000/svg">
<rect x="0.481934" y="0.241211" width="23.518" height="23.518" rx="11.759" fill="#707070"/>
<path fill-rule="evenodd" clip-rule="evenodd" d="M5.70127 5.46055C5.8419 5.3201 6.03252 5.24121 6.23127 5.24121C6.43002 5.24121 6.62065 5.3201 6.76127 5.46055L18.7613 17.4606C18.835 17.5292 18.8941 17.612 18.9351 17.704C18.976 17.796 18.9981 17.8953 18.9999 17.996C19.0016 18.0967 18.9831 18.1968 18.9454 18.2901C18.9077 18.3835 18.8515 18.4684 18.7803 18.5396C18.7091 18.6108 18.6243 18.667 18.5309 18.7047C18.4375 18.7424 18.3375 18.7609 18.2368 18.7591C18.136 18.7574 18.0367 18.7353 17.9447 18.6943C17.8527 18.6533 17.7699 18.5942 17.7013 18.5206L5.70127 6.52055C5.56082 6.37993 5.48193 6.1893 5.48193 5.99055C5.48193 5.7918 5.56082 5.60118 5.70127 5.46055Z" fill="white"/>
<path fill-rule="evenodd" clip-rule="evenodd" d="M18.7613 5.46055C18.9017 5.60118 18.9806 5.7918 18.9806 5.99055C18.9806 6.1893 18.9017 6.37993 18.7613 6.52055L6.76129 18.5206C6.61912 18.653 6.43107 18.7252 6.23677 18.7217C6.04247 18.7183 5.85708 18.6396 5.71967 18.5022C5.58226 18.3648 5.50355 18.1794 5.50012 17.9851C5.49669 17.7908 5.56881 17.6027 5.70129 17.4606L17.7013 5.46055C17.8419 5.3201 18.0325 5.24121 18.2313 5.24121C18.43 5.24121 18.6207 5.3201 18.7613 5.46055Z" fill="white"/>
</svg>
