<svg width="25" height="25" viewBox="0 0 25 25" fill="none" xmlns="http://www.w3.org/2000/svg">
<path fill-rule="evenodd" clip-rule="evenodd" d="M17.7124 1.91406H18.4734C19.3454 1.91406 20.0734 1.91406 20.6534 1.99206C21.2634 2.07406 21.8194 2.25406 22.2664 2.70006C22.7134 3.14606 22.8964 3.70106 22.9784 4.31206C23.0564 4.89006 23.0564 5.61606 23.0564 6.48506V7.24506C23.0564 8.29506 23.0564 9.03206 22.7764 9.70606C22.4964 10.3801 21.9744 10.9011 21.2294 11.6431L21.1294 11.7431L18.4594 14.4051L18.5524 14.5481C18.9464 15.1561 19.2654 15.6481 19.4954 16.0731C19.7334 16.5131 19.9034 16.9261 19.9714 17.3831C20.0782 18.1217 19.9814 18.8754 19.6914 19.5631C19.5844 19.8211 19.3994 20.0901 19.2094 20.3351C19.0094 20.5931 18.7654 20.8731 18.5034 21.1581C17.9484 21.7519 17.3809 22.3341 16.8014 22.9041L16.7104 22.9941C15.9904 23.7121 14.7424 23.4801 14.3584 22.5171C14.1314 21.9451 14.0384 21.7171 13.9234 21.5071C13.8167 21.3122 13.6939 21.1265 13.5564 20.9521C13.4104 20.7651 13.2404 20.5921 12.8164 20.1711L12.3114 19.7281L12.2914 19.7091C12.197 19.7218 12.1017 19.7279 12.0064 19.7271C11.3744 19.7271 10.8534 19.4641 10.3624 19.0901C9.8984 18.7371 9.3824 18.2231 8.7664 17.6091L7.3194 16.1661C6.7034 15.5521 6.1884 15.0381 5.8334 14.5751C5.4594 14.0851 5.1934 13.5651 5.1934 12.9331C5.19407 12.8197 5.20274 12.7074 5.2194 12.5961L4.3894 11.7691L4.3024 11.6821C3.89879 11.2902 3.41883 10.9855 2.8924 10.7871L2.5144 10.6371C2.28073 10.5448 2.07369 10.3957 1.91197 10.2035C1.75025 10.0112 1.63892 9.78167 1.58803 9.53563C1.53713 9.28959 1.54827 9.03475 1.62044 8.79409C1.6926 8.55342 1.82352 8.3345 2.0014 8.15706L2.0084 8.14906C2.58032 7.57139 3.16411 7.00561 3.7594 6.45206C4.0464 6.19106 4.3274 5.94806 4.5844 5.74906C4.8314 5.55906 5.1014 5.37406 5.3584 5.26806C6.04784 4.97949 6.80266 4.88341 7.5424 4.99006C7.9994 5.05706 8.4124 5.22606 8.8534 5.46406C9.2794 5.69406 9.7734 6.01106 10.3834 6.40406L10.5314 6.49906L13.2034 3.83406L13.3034 3.73506C14.0474 2.99206 14.5694 2.47106 15.2454 2.19206C15.9214 1.91306 16.6584 1.91406 17.7124 1.91406ZM9.4434 7.58306C8.8834 7.22306 8.4804 6.96706 8.1424 6.78406C7.7824 6.59106 7.5424 6.50606 7.3224 6.47406C6.85141 6.40691 6.37102 6.46877 5.9324 6.65306C5.7786 6.7319 5.63376 6.82712 5.5004 6.93706C5.2884 7.10006 5.0414 7.31306 4.7704 7.56006C4.18892 8.10076 3.61879 8.65355 3.0604 9.21806L3.0564 9.22406V9.23106L3.0594 9.23906L3.0674 9.24306L3.4504 9.39506L3.5784 9.44606C4.23606 9.71694 4.83608 10.1106 5.3464 10.6061C5.3744 10.6321 5.4014 10.6591 5.4444 10.7031L5.9224 11.1791C5.98774 11.0977 6.05574 11.0171 6.1264 10.9371C6.4484 10.5691 6.8614 10.1571 7.3404 9.68006L9.4434 7.58306ZM13.7604 19.0031L13.8414 19.0741L13.8934 19.1261C14.2834 19.5161 14.5264 19.7561 14.7374 20.0261C14.9247 20.2661 15.0917 20.5194 15.2384 20.7861C15.3984 21.0771 15.5224 21.3841 15.7154 21.8691L15.7354 21.8491C16.3016 21.2924 16.856 20.7239 17.3984 20.1441C17.6464 19.8741 17.8604 19.6271 18.0234 19.4161C18.1342 19.2839 18.2298 19.1396 18.3084 18.9861C18.4929 18.55 18.5548 18.0718 18.4874 17.6031C18.4554 17.3851 18.3704 17.1461 18.1774 16.7881C17.9934 16.4501 17.7364 16.0481 17.3734 15.4881L15.2644 17.5901C14.7744 18.0781 14.3524 18.4991 13.9774 18.8231C13.9061 18.8843 13.8338 18.9443 13.7604 19.0031ZM17.8534 3.41406C16.6014 3.41406 16.1834 3.42706 15.8174 3.57806C15.4524 3.72906 15.1474 4.01406 14.2624 4.89706L8.4154 10.7261C7.9174 11.2231 7.5394 11.6001 7.2554 11.9261C6.9684 12.2511 6.8224 12.4751 6.7514 12.6511C6.71274 12.74 6.69299 12.8361 6.6934 12.9331C6.6934 13.1031 6.7524 13.3071 7.0254 13.6631C7.3104 14.0371 7.7534 14.4801 8.4154 15.1411L8.5724 15.2971L10.1024 13.7711C10.2434 13.6305 10.4344 13.5517 10.6335 13.552C10.8325 13.5522 11.0233 13.6316 11.1639 13.7726C11.3045 13.9135 11.3833 14.1046 11.383 14.3036C11.3827 14.5027 11.3034 14.6935 11.1624 14.8341L9.6354 16.3561L9.7884 16.5101C10.4514 17.1701 10.8954 17.6111 11.2704 17.8961C11.6284 18.1681 11.8334 18.2271 12.0064 18.2271C12.0953 18.2277 12.1836 18.2114 12.2664 18.1791C12.4414 18.1151 12.6644 17.9751 12.9964 17.6891C13.3264 17.4031 13.7124 17.0191 14.2234 16.5091L20.0704 10.6811C20.9554 9.79806 21.2404 9.49506 21.3914 9.13106C21.5424 8.76706 21.5564 8.35306 21.5564 7.10406V6.53706C21.5564 5.60306 21.5544 4.97706 21.4914 4.51206C21.4314 4.06906 21.3294 3.88306 21.2074 3.76206C21.0854 3.64106 20.8994 3.53806 20.4534 3.47806C19.9854 3.41606 19.3584 3.41406 18.4214 3.41406H17.8534ZM16.9694 7.98806C16.7453 7.76511 16.442 7.63996 16.1259 7.63996C15.8098 7.63996 15.5065 7.76511 15.2824 7.98806C15.1717 8.09777 15.0839 8.2283 15.024 8.37213C14.964 8.51596 14.9332 8.67024 14.9332 8.82606C14.9332 8.98188 14.964 9.13616 15.024 9.27999C15.0839 9.42382 15.1717 9.55436 15.2824 9.66406C15.5065 9.88701 15.8098 10.0122 16.1259 10.0122C16.442 10.0122 16.7453 9.88701 16.9694 9.66406C17.0801 9.55436 17.1679 9.42382 17.2278 9.27999C17.2878 9.13616 17.3186 8.98188 17.3186 8.82606C17.3186 8.67024 17.2878 8.51596 17.2278 8.37213C17.1679 8.2283 17.0801 8.09777 16.9694 7.98806ZM14.2234 6.92406C14.7287 6.42052 15.413 6.13778 16.1264 6.13778C16.8398 6.13778 17.5241 6.42052 18.0294 6.92406C18.2799 7.17312 18.4787 7.46925 18.6143 7.7954C18.75 8.12156 18.8198 8.47132 18.8198 8.82456C18.8198 9.1778 18.75 9.52756 18.6143 9.85372C18.4787 10.1799 18.2799 10.476 18.0294 10.7251C17.5241 11.2286 16.8398 11.5113 16.1264 11.5113C15.413 11.5113 14.7287 11.2286 14.2234 10.7251C13.9731 10.476 13.7744 10.18 13.6388 9.85389C13.5033 9.52783 13.4335 9.17819 13.4335 8.82506C13.4335 8.47194 13.5033 8.1223 13.6388 7.79623C13.7744 7.47017 13.9731 7.1731 14.2234 6.92406Z" fill="#9CA4AB"/>
</svg>
