<svg width="25" height="25" viewBox="0 0 25 25" fill="none" xmlns="http://www.w3.org/2000/svg">
<g clip-path="url(#clip0_1217_649)">
<path d="M9.3634 1.06975L7.5634 4.17675L6.6954 3.67875C5.4264 2.94975 3.8434 3.86275 3.8434 5.31875V11.5988L7.7434 4.86475L9.8004 1.31875C9.81843 1.2865 9.82297 1.24842 9.81304 1.21283C9.80312 1.17724 9.77952 1.14702 9.7474 1.12875L9.5574 1.01875C9.52505 1.00032 9.48679 0.995233 9.45075 1.00457C9.41471 1.01391 9.38373 1.03693 9.3644 1.06875L9.3634 1.06975ZM8.6504 4.80375L3.8434 13.1047V20.2677C3.8434 20.9417 4.1814 21.4977 4.6694 21.8298L3.0194 24.6798C3.01004 24.6956 3.0039 24.7132 3.00135 24.7315C2.9988 24.7497 2.99987 24.7683 3.00452 24.7861C3.00916 24.804 3.01729 24.8207 3.02842 24.8354C3.03956 24.8501 3.05348 24.8625 3.0694 24.8717L3.2614 24.9808C3.27732 24.9903 3.29498 24.9965 3.31334 24.9992C3.3317 25.0018 3.3504 25.0008 3.36836 24.9961C3.38632 24.9915 3.40317 24.9833 3.41794 24.9721C3.43271 24.9608 3.4451 24.9468 3.4544 24.9307L5.1194 22.0567L13.4964 7.58975L8.6504 4.80375ZM20.2804 7.35075L18.4804 10.4587L14.1504 7.96875L5.9334 22.1548C6.20283 22.1275 6.46332 22.0429 6.6974 21.9067L15.2954 16.9587L20.7154 7.60275C20.7249 7.58683 20.7312 7.56918 20.7338 7.55081C20.7365 7.53245 20.7354 7.51375 20.7308 7.49579C20.7261 7.47783 20.7179 7.46098 20.7067 7.44621C20.6955 7.43144 20.6815 7.41905 20.6654 7.40975C20.6007 7.37375 20.5367 7.33708 20.4734 7.29975C20.4464 7.27975 20.3334 7.25875 20.2804 7.35075ZM19.5694 11.0858L16.6024 16.2087L19.6824 14.4348C20.9504 13.7038 20.9504 11.8787 19.6824 11.1497L19.5694 11.0858Z" fill="#9CA4AB"/>
</g>
<defs>
<clipPath id="clip0_1217_649">
<rect width="24" height="24" fill="white" transform="translate(0.306396 0.664062)"/>
</clipPath>
</defs>
</svg>
