<svg width="81" height="80" viewBox="0 0 81 80" fill="none" xmlns="http://www.w3.org/2000/svg">
<path d="M66.0067 64.6832C67.8467 64.2998 68.9467 62.3732 68.03 60.7265C66.01 57.1032 62.83 53.9165 58.7633 51.4898C53.5233 48.3632 47.1 46.6665 40.5 46.6665C33.9 46.6665 27.4767 48.3598 22.2367 51.4898C18.17 53.9165 14.99 57.1032 12.97 60.7265C12.0533 62.3732 13.1533 64.2998 14.9933 64.6832C31.8159 68.1894 49.1808 68.1894 66.0033 64.6832" fill="white"/>
<path d="M40.5007 43.3333C49.7054 43.3333 57.1673 35.8714 57.1673 26.6667C57.1673 17.4619 49.7054 10 40.5007 10C31.2959 10 23.834 17.4619 23.834 26.6667C23.834 35.8714 31.2959 43.3333 40.5007 43.3333Z" fill="white"/>
</svg>
