<svg width="30" height="30" viewBox="0 0 30 30" fill="none" xmlns="http://www.w3.org/2000/svg">
<path d="M24.565 24.2563C25.255 24.1125 25.6675 23.39 25.3238 22.7725C24.5663 21.4138 23.3738 20.2187 21.8488 19.3087C19.8838 18.1362 17.475 17.5 15 17.5C12.525 17.5 10.1163 18.135 8.15125 19.3087C6.62625 20.2187 5.43375 21.4138 4.67625 22.7725C4.3325 23.39 4.745 24.1125 5.435 24.2563C11.7435 25.5711 18.2553 25.5711 24.5638 24.2563" fill="white"/>
<path d="M15 16.25C18.4518 16.25 21.25 13.4518 21.25 10C21.25 6.54822 18.4518 3.75 15 3.75C11.5482 3.75 8.75 6.54822 8.75 10C8.75 13.4518 11.5482 16.25 15 16.25Z" fill="white"/>
</svg>
